<svg width="129" height="33" viewBox="0 0 129 33" fill="none" xmlns="http://www.w3.org/2000/svg">
<g clip-path="url(#clip0_129_359)">
<path opacity="0.1" fill-rule="evenodd" clip-rule="evenodd" d="M0.912109 16.9114C0.912109 8.07482 8.07555 0.911377 16.9121 0.911377C25.7487 0.911377 32.9121 8.07482 32.9121 16.9114C32.9121 25.7479 25.7487 32.9114 16.9121 32.9114C8.07555 32.9114 0.912109 25.7479 0.912109 16.9114Z" fill="#E6C8C8"/>
<path fill-rule="evenodd" clip-rule="evenodd" d="M16.913 8.37793C14.5955 8.37793 14.3047 8.38806 13.3944 8.42949C12.486 8.47109 11.8659 8.61491 11.3233 8.82593C10.762 9.04389 10.2859 9.33545 9.81163 9.80994C9.33696 10.2843 9.0454 10.7604 8.82673 11.3214C8.61518 11.8642 8.47117 12.4845 8.43028 13.3926C8.38957 14.3028 8.37891 14.5938 8.37891 16.9114C8.37891 19.2289 8.38922 19.5188 8.43046 20.4291C8.47224 21.3375 8.61606 21.9576 8.82691 22.5002C9.04505 23.0615 9.33661 23.5376 9.8111 24.0119C10.2852 24.4865 10.7613 24.7788 11.3222 24.9968C11.8652 25.2078 12.4854 25.3516 13.3937 25.3932C14.3039 25.4346 14.5946 25.4448 16.912 25.4448C19.2297 25.4448 19.5196 25.4346 20.4299 25.3932C21.3383 25.3516 21.9591 25.2078 22.5021 24.9968C23.0631 24.7788 23.5385 24.4865 24.0127 24.0119C24.4873 23.5376 24.7789 23.0615 24.9976 22.5004C25.2073 21.9576 25.3514 21.3374 25.394 20.4293C25.4349 19.519 25.4456 19.2289 25.4456 16.9114C25.4456 14.5938 25.4349 14.303 25.394 13.3927C25.3514 12.4843 25.2073 11.8642 24.9976 11.3216C24.7789 10.7604 24.4873 10.2843 24.0127 9.80994C23.538 9.33527 23.0633 9.04371 22.5015 8.82593C21.9575 8.61491 21.3371 8.47109 20.4286 8.42949C19.5184 8.38806 19.2286 8.37793 16.9104 8.37793H16.913ZM16.1475 9.9157C16.3747 9.91534 16.6282 9.9157 16.913 9.9157C19.1914 9.9157 19.4615 9.92388 20.3612 9.96477C21.1932 10.0028 21.6448 10.1418 21.9456 10.2586C22.3438 10.4133 22.6277 10.5982 22.9262 10.8969C23.2249 11.1955 23.4098 11.48 23.5648 11.8782C23.6816 12.1787 23.8208 12.6302 23.8587 13.4622C23.8996 14.3618 23.9085 14.632 23.9085 16.9094C23.9085 19.1867 23.8996 19.457 23.8587 20.3565C23.8206 21.1885 23.6816 21.6401 23.5648 21.9405C23.4101 22.3388 23.2249 22.6223 22.9262 22.9208C22.6276 23.2195 22.344 23.4044 21.9456 23.559C21.6451 23.6764 21.1932 23.815 20.3612 23.8531C19.4617 23.894 19.1914 23.9029 16.913 23.9029C14.6344 23.9029 14.3644 23.894 13.4648 23.8531C12.6328 23.8147 12.1812 23.6757 11.8802 23.5589C11.482 23.4042 11.1976 23.2193 10.8989 22.9206C10.6002 22.622 10.4153 22.3382 10.2603 21.9398C10.1435 21.6394 10.0043 21.1878 9.96644 20.3558C9.92555 19.4562 9.91737 19.186 9.91737 16.9072C9.91737 14.6285 9.92555 14.3597 9.96644 13.4601C10.0045 12.6281 10.1435 12.1765 10.2603 11.8757C10.415 11.4775 10.6002 11.193 10.8989 10.8944C11.1976 10.5957 11.482 10.4108 11.8802 10.2558C12.181 10.1385 12.6328 9.99979 13.4648 9.96157C14.252 9.92601 14.5571 9.91534 16.1475 9.91357V9.9157ZM21.4681 11.3326C20.9027 11.3326 20.4441 11.7907 20.4441 12.3563C20.4441 12.9216 20.9027 13.3803 21.4681 13.3803C22.0334 13.3803 22.4921 12.9216 22.4921 12.3563C22.4921 11.7909 22.0334 11.3326 21.4681 11.3326ZM16.9131 12.5291C14.4929 12.5291 12.5308 14.4912 12.5308 16.9113C12.5308 19.3314 14.4929 21.2927 16.9131 21.2927C19.3332 21.2927 21.2946 19.3314 21.2946 16.9113C21.2946 14.4912 19.3332 12.5291 16.9131 12.5291ZM16.913 14.0669C18.4839 14.0669 19.7575 15.3403 19.7575 16.9113C19.7575 18.4822 18.4839 19.7558 16.913 19.7558C15.342 19.7558 14.0685 18.4822 14.0685 16.9113C14.0685 15.3403 15.342 14.0669 16.913 14.0669Z" fill="#E6C8C8"/>
<path opacity="0.1" fill-rule="evenodd" clip-rule="evenodd" d="M48.9121 16.9114C48.9121 8.07482 56.0756 0.911377 64.9121 0.911377C73.7487 0.911377 80.9121 8.07482 80.9121 16.9114C80.9121 25.7479 73.7487 32.9114 64.9121 32.9114C56.0756 32.9114 48.9121 25.7479 48.9121 16.9114Z" fill="#E6C8C8"/>
<path fill-rule="evenodd" clip-rule="evenodd" d="M64.4329 13.9165L64.4665 14.4701L63.9069 14.4023C61.87 14.1424 60.0905 13.2612 58.5797 11.781L57.841 11.0466L57.6508 11.5889C57.2479 12.7979 57.5053 14.0747 58.3446 14.9334C58.7923 15.4079 58.6916 15.4757 57.9194 15.1932C57.6508 15.1028 57.4157 15.035 57.3934 15.0689C57.315 15.148 57.5836 16.1762 57.7963 16.583C58.0872 17.1479 58.6804 17.7015 59.3295 18.0292L59.8779 18.2891L59.2288 18.3004C58.6021 18.3004 58.5797 18.3117 58.6468 18.5489C58.8707 19.2834 59.7548 20.063 60.7397 20.4019L61.4335 20.6392L60.8292 21.0008C59.9339 21.5205 58.8818 21.8143 57.8298 21.8369C57.3262 21.8482 56.9121 21.8934 56.9121 21.9273C56.9121 22.0402 58.2775 22.673 59.0721 22.9215C61.4559 23.656 64.2874 23.3396 66.4138 22.0854C67.9247 21.1928 69.4356 19.4189 70.1407 17.7015C70.5212 16.7863 70.9017 15.1141 70.9017 14.3119C70.9017 13.7922 70.9353 13.7244 71.562 13.103C71.9313 12.7414 72.2783 12.346 72.3454 12.233C72.4573 12.0183 72.4461 12.0183 71.8754 12.2104C70.9241 12.5493 70.7898 12.5041 71.2598 11.9957C71.6068 11.6341 72.0209 10.9788 72.0209 10.7867C72.0209 10.7528 71.853 10.8093 71.6627 10.911C71.4613 11.024 71.0136 11.1935 70.6779 11.2952L70.0735 11.4873L69.5251 11.1144C69.2229 10.911 68.7977 10.685 68.5738 10.6173C68.0031 10.4591 67.1301 10.4817 66.6153 10.6625C65.2163 11.1709 64.3322 12.4815 64.4329 13.9165Z" fill="#E6C8C8"/>
<path opacity="0.1" fill-rule="evenodd" clip-rule="evenodd" d="M96.9121 16.9114C96.9121 8.07482 104.076 0.911377 112.912 0.911377C121.749 0.911377 128.912 8.07482 128.912 16.9114C128.912 25.7479 121.749 32.9114 112.912 32.9114C104.076 32.9114 96.9121 25.7479 96.9121 16.9114Z" fill="#E6C8C8"/>
<path fill-rule="evenodd" clip-rule="evenodd" d="M119.58 11.4109C120.314 11.6124 120.893 12.2062 121.089 12.9602C121.446 14.3267 121.446 17.178 121.446 17.178C121.446 17.178 121.446 20.0292 121.089 21.3959C120.893 22.1499 120.314 22.7436 119.58 22.9452C118.249 23.3113 112.912 23.3113 112.912 23.3113C112.912 23.3113 107.575 23.3113 106.244 22.9452C105.51 22.7436 104.932 22.1499 104.735 21.3959C104.379 20.0292 104.379 17.178 104.379 17.178C104.379 17.178 104.379 14.3267 104.735 12.9602C104.932 12.2062 105.51 11.6124 106.244 11.4109C107.575 11.0447 112.912 11.0447 112.912 11.0447C112.912 11.0447 118.249 11.0447 119.58 11.4109ZM111.312 14.778V20.1113L115.579 17.4447L111.312 14.778Z" fill="#E6C8C8"/>
</g>
<defs>
<clipPath id="clip0_129_359">
<rect width="128" height="32" fill="white" transform="translate(0.912109 0.911377)"/>
</clipPath>
</defs>
</svg>
