<svg width="33" height="33" viewBox="0 0 33 33" fill="none" xmlns="http://www.w3.org/2000/svg">
<path opacity="0.1" fill-rule="evenodd" clip-rule="evenodd" d="M0.912109 16.9114C0.912109 8.07482 8.07555 0.911377 16.9121 0.911377C25.7487 0.911377 32.9121 8.07482 32.9121 16.9114C32.9121 25.7479 25.7487 32.9114 16.9121 32.9114C8.07555 32.9114 0.912109 25.7479 0.912109 16.9114Z" fill="#E6C8C8"/>
<path fill-rule="evenodd" clip-rule="evenodd" d="M16.4329 13.9165L16.4665 14.4701L15.9069 14.4023C13.87 14.1424 12.0905 13.2612 10.5797 11.781L9.84102 11.0466L9.65076 11.5889C9.24786 12.7979 9.50527 14.0747 10.3446 14.9334C10.7923 15.4079 10.6916 15.4757 9.91936 15.1932C9.65076 15.1028 9.41573 15.035 9.39335 15.0689C9.31501 15.148 9.58361 16.1762 9.79625 16.583C10.0872 17.1479 10.6804 17.7015 11.3295 18.0292L11.8779 18.2891L11.2288 18.3004C10.6021 18.3004 10.5797 18.3117 10.6468 18.5489C10.8707 19.2834 11.7548 20.063 12.7397 20.4019L13.4335 20.6392L12.8292 21.0008C11.9339 21.5205 10.8818 21.8143 9.82983 21.8369C9.3262 21.8482 8.91211 21.8934 8.91211 21.9273C8.91211 22.0402 10.2775 22.673 11.0721 22.9215C13.4559 23.656 16.2874 23.3396 18.4138 22.0854C19.9247 21.1928 21.4356 19.4189 22.1407 17.7015C22.5212 16.7863 22.9017 15.1141 22.9017 14.3119C22.9017 13.7922 22.9353 13.7244 23.562 13.103C23.9313 12.7414 24.2783 12.346 24.3454 12.233C24.4573 12.0183 24.4461 12.0183 23.8754 12.2104C22.9241 12.5493 22.7898 12.5041 23.2598 11.9957C23.6068 11.6341 24.0209 10.9788 24.0209 10.7867C24.0209 10.7528 23.853 10.8093 23.6627 10.911C23.4613 11.024 23.0136 11.1935 22.6779 11.2952L22.0735 11.4873L21.5251 11.1144C21.2229 10.911 20.7977 10.685 20.5738 10.6173C20.0031 10.4591 19.1301 10.4817 18.6153 10.6625C17.2163 11.1709 16.3322 12.4815 16.4329 13.9165Z" fill="#E6C8C8"/>
</svg>
