<svg width="33" height="33" viewBox="0 0 33 33" fill="none" xmlns="http://www.w3.org/2000/svg">
<path opacity="0.1" fill-rule="evenodd" clip-rule="evenodd" d="M0.912109 16.9114C0.912109 8.07482 8.07555 0.911377 16.9121 0.911377C25.7487 0.911377 32.9121 8.07482 32.9121 16.9114C32.9121 25.7479 25.7487 32.9114 16.9121 32.9114C8.07555 32.9114 0.912109 25.7479 0.912109 16.9114Z" fill="#E6C8C8"/>
<path fill-rule="evenodd" clip-rule="evenodd" d="M23.58 11.4109C24.3143 11.6124 24.8927 12.2062 25.0889 12.9602C25.4456 14.3267 25.4456 17.178 25.4456 17.178C25.4456 17.178 25.4456 20.0292 25.0889 21.3959C24.8927 22.1499 24.3143 22.7436 23.58 22.9452C22.2492 23.3113 16.9122 23.3113 16.9122 23.3113C16.9122 23.3113 11.5753 23.3113 10.2444 22.9452C9.51006 22.7436 8.93173 22.1499 8.73546 21.3959C8.37891 20.0292 8.37891 17.178 8.37891 17.178C8.37891 17.178 8.37891 14.3267 8.73546 12.9602C8.93173 12.2062 9.51006 11.6124 10.2444 11.4109C11.5753 11.0447 16.9122 11.0447 16.9122 11.0447C16.9122 11.0447 22.2492 11.0447 23.58 11.4109ZM15.3123 14.778V20.1113L19.5789 17.4447L15.3123 14.778Z" fill="#E6C8C8"/>
</svg>
